<svg xmlns="http://www.w3.org/2000/svg" viewBox="0 0 40 20">
  <path d="M28.98 5.7c-.24-2.36-2.24-4.2-4.66-4.2-1.95 0-3.6 1.18-4.32 2.87-.7-1.7-2.37-2.87-4.32-2.87-2.42 0-4.42 1.84-4.66 4.2l-.02.48c0 5.7 6.98 8.38 9 12.17 2.02-3.8 9-6.48 9-12.17 0-.16 0-.32-.02-.48z"/>
  <path d="M15.98 8c-.2-1.96-1.86-3.5-3.88-3.5-1.62 0-3 1-3.6 2.4-.6-1.4-1.98-2.4-3.6-2.4-2.02 0-3.68 1.54-3.88 3.5L1 8.4c0 4.74 5.82 6.98 7.5 10.14 1.68-3.16 7.5-5.4 7.5-10.14 0-.13 0-.27-.02-.4zM38.98 8c-.2-1.96-1.86-3.5-3.88-3.5-1.62 0-3 1-3.6 2.4-.6-1.4-1.98-2.4-3.6-2.4-2.02 0-3.68 1.54-3.88 3.5l-.02.4c0 4.74 5.82 6.98 7.5 10.14 1.68-3.16 7.5-5.4 7.5-10.14 0-.13 0-.27-.02-.4z"/>
</svg>