<?xml version="1.0" encoding="UTF-8" standalone="no"?>
<svg width="460px" height="348px" viewBox="0 0 460 348" version="1.1" xmlns="http://www.w3.org/2000/svg" xmlns:xlink="http://www.w3.org/1999/xlink">
    <!-- Generator: Sketch 3.6.1 (26313) - http://www.bohemiancoding.com/sketch -->
    <title>Group</title>
    <desc>Created with Sketch.</desc>
    <defs></defs>
    <g id="Page-1" stroke="none" stroke-width="1" fill="none" fill-rule="evenodd">
        <g id="Group" fill="#000000">
            <path d="M300.327,347.181 C302.239,347.181 304.077,346.446 305.463,345.128 C307.795,342.909 357.705,294.555 398.399,189.762 C399.66,189.081 400.896,188.38 402.1,187.656 C425.037,173.876 437.16,153.069 437.16,127.483 C437.16,119.846 436.604,112.213 435.54,104.707 C450.099,96.753 460,81.302 460,63.575 C460,37.743 438.985,16.728 413.153,16.728 C405.688,16.728 398.631,18.493 392.364,21.615 C375.146,7.929 353.839,0.818 329.435,0.818 C305.283,0.818 284.09,7.987 266.859,21.789 C260.504,18.558 253.323,16.729 245.718,16.729 C232.89,16.729 221.254,21.915 212.786,30.296 C187.622,27.436 141.034,27.115 80.036,48.593 C40.926,62.364 19.51,77.643 8.429,99.683 C-3.708,123.821 -2.772,155.234 11.465,201.536 C37.688,286.819 74.793,341.642 76.359,343.935 C77.748,345.966 80.049,347.181 82.51,347.181 L139.332,347.181 C142.652,347.181 145.572,344.984 146.491,341.794 C146.545,341.607 151.912,322.969 155.133,311.032 C158.093,300.062 165.24,287.024 178.1,286.473 C194.461,286.473 200.61,304.973 201.821,310.647 C205.519,327.969 207.729,340.857 207.751,340.985 C208.363,344.564 211.465,347.181 215.095,347.181 L300.327,347.181 L300.327,347.181 Z M245.718,31.63 C248.951,31.63 252.062,32.136 255.004,33.036 C251.694,36.727 248.578,40.717 245.675,45.016 C237.068,57.762 230.539,72.907 226.486,89.057 C218.77,83.222 213.773,73.974 213.773,63.576 C213.772,45.961 228.103,31.63 245.718,31.63 L245.718,31.63 Z M108.266,332.28 L86.546,332.28 C78.298,319.34 47.71,268.712 25.708,197.157 C0.866,116.368 20.135,88.413 72.039,67.51 C82.678,74.472 123.586,106.272 113.022,177.644 C100.077,265.099 107.926,329.622 108.266,332.28 L108.266,332.28 Z M140.746,307.151 C138.623,315.019 135.549,325.862 133.716,332.281 L124.655,332.281 C122.612,319.674 124.566,309.584 130.479,302.26 C134.3,297.528 139.852,293.861 147.046,291.245 C144.491,295.81 142.373,301.12 140.746,307.151 L140.746,307.151 Z M202.484,44.455 C183.465,64.909 159.018,98.661 169.915,151.821 C175.664,179.867 186.998,233.699 195.946,276.048 C190.899,273.128 183.709,271.508 177.545,271.588 C151.912,271.92 131.84,278.721 120.723,290.796 C120.131,263.937 121.087,224.918 127.761,179.826 C134.822,132.123 120.719,100.243 107.644,81.9 C101.163,72.807 94.315,66.069 88.693,61.375 C138.536,44.416 178.157,42.834 202.484,44.455 L202.484,44.455 Z M370.773,200.23 C373.592,199.52 376.352,198.741 379.036,197.883 C345.126,279.183 306.38,322.67 297.208,332.28 L268.951,332.28 L279.114,294.305 C280.177,290.33 277.818,286.245 273.842,285.182 C269.871,284.119 265.783,286.477 264.719,290.453 L253.525,332.281 L223.081,332.281 C220.273,319.043 194.292,196.544 184.512,148.829 C177.482,114.53 187.224,89.556 199.557,71.57 C202.031,85.894 211.039,98 223.386,104.725 C222.286,112.24 221.711,119.868 221.711,127.484 C221.711,143.749 226.618,158.079 236.08,169.904 C236.312,173.844 239.163,219.963 246,238.176 C255.065,262.317 271.642,270.052 283.955,272.29 C286.996,272.843 290.127,273.111 293.305,273.111 C311.52,273.111 331.237,264.31 343.816,249.934 C357.79,233.963 370.25,201.596 370.773,200.23 L370.773,200.23 Z M252.14,184.671 C253.633,185.699 255.173,186.697 256.772,187.657 C275.522,198.922 301.328,205.126 329.436,205.126 C337.623,205.126 345.604,204.584 353.283,203.56 C348.839,213.803 340.799,230.754 332.603,240.121 C322.898,251.212 303.99,260.79 286.622,257.629 C274.231,255.377 265.258,247.07 259.952,232.938 C256.256,223.1 253.617,201.151 252.14,184.671 L252.14,184.671 Z M394.427,174.884 C377.961,184.777 354.879,190.225 329.436,190.225 C303.993,190.225 280.912,184.777 264.446,174.884 C245.977,163.789 236.613,147.841 236.613,127.484 C236.613,89.842 255.016,19.546 323.773,15.88 L323.773,84.032 C323.773,86.775 325.996,88.999 328.74,88.999 C331.483,88.999 333.707,86.775 333.707,84.032 L333.707,15.811 C403.468,18.493 422.261,86.793 422.261,127.484 C422.259,147.841 412.895,163.789 394.427,174.884 L394.427,174.884 Z M432.504,88.951 C428.54,72.765 422.149,57.664 413.718,45.046 C410.803,40.683 407.661,36.636 404.31,32.899 C407.121,32.086 410.083,31.629 413.153,31.629 C430.768,31.629 445.099,45.96 445.099,63.575 C445.099,73.917 440.149,83.111 432.504,88.951 L432.504,88.951 Z" id="Shape"></path>
            <path d="M279.295,130.063 C277.338,130.063 275.42,130.858 274.03,132.248 C272.639,133.629 271.844,135.546 271.844,137.513 C271.844,139.47 272.638,141.387 274.03,142.778 C275.42,144.169 277.338,144.964 279.295,144.964 C281.261,144.964 283.179,144.169 284.569,142.778 C285.95,141.387 286.745,139.47 286.745,137.513 C286.745,135.546 285.951,133.629 284.569,132.248 C283.179,130.858 281.261,130.063 279.295,130.063 L279.295,130.063 Z" id="Shape"></path>
            <path d="M374.301,132.238 C372.921,133.629 372.126,135.556 372.126,137.513 C372.126,139.47 372.92,141.397 374.301,142.778 C375.692,144.169 377.609,144.964 379.576,144.964 C381.533,144.964 383.45,144.169 384.841,142.778 C386.221,141.397 387.017,139.47 387.017,137.513 C387.017,135.546 386.222,133.629 384.841,132.238 C383.45,130.857 381.533,130.063 379.576,130.063 C377.609,130.063 375.692,130.858 374.301,132.238 L374.301,132.238 Z" id="Shape"></path>
            <path d="M329.435,133.538 C317.738,133.538 308.917,138.803 308.917,145.784 C308.917,151.734 315.334,156.424 324.469,157.684 L324.469,172.654 L319.409,172.654 C316.666,172.654 314.442,174.878 314.442,177.621 C314.442,180.364 316.665,182.588 319.409,182.588 L339.464,182.588 C342.207,182.588 344.431,180.364 344.431,177.621 C344.431,174.878 342.208,172.654 339.464,172.654 L334.403,172.654 L334.403,157.684 C343.538,156.424 349.956,151.734 349.956,145.784 C349.955,138.803 341.133,133.538 329.435,133.538 L329.435,133.538 Z" id="Shape"></path>
            <path d="M353.638,118.401 C349.633,122.406 346.047,129.751 351.708,142.004 C355.759,150.772 362.996,158.518 365.92,161.442 C371.419,166.941 378.731,169.97 386.508,169.97 C394.285,169.97 401.597,166.941 407.095,161.442 C412.594,155.943 415.624,148.631 415.624,140.854 C415.624,133.077 412.594,125.765 407.095,120.266 C401.742,114.912 391.843,111.378 380.616,110.812 C368.892,110.219 359.052,112.987 353.638,118.401 L353.638,118.401 Z M405.69,140.854 C405.69,145.978 403.695,150.795 400.071,154.418 C396.448,158.041 391.631,160.036 386.507,160.036 C381.383,160.036 376.566,158.041 372.942,154.418 C367.558,149.034 363.105,142.992 360.726,137.839 C356.783,129.304 359.702,126.385 360.661,125.426 C363.626,122.461 370.147,120.672 377.675,120.672 C378.478,120.672 379.293,120.692 380.116,120.734 C388.687,121.166 396.519,123.739 400.071,127.291 C403.695,130.913 405.69,135.73 405.69,140.854 L405.69,140.854 Z" id="Shape"></path>
            <path d="M305.233,118.401 C299.82,112.987 289.988,110.214 278.255,110.812 C267.028,111.378 257.129,114.912 251.776,120.266 C246.277,125.765 243.248,133.077 243.248,140.854 C243.248,148.631 246.277,155.943 251.776,161.442 C257.275,166.941 264.586,169.97 272.363,169.97 C280.14,169.97 287.452,166.941 292.951,161.442 C306.325,148.069 316.573,129.74 305.233,118.401 L305.233,118.401 Z M285.928,154.418 C282.305,158.041 277.487,160.036 272.363,160.036 C267.239,160.036 262.422,158.041 258.799,154.418 C255.176,150.795 253.181,145.978 253.181,140.854 C253.181,135.73 255.176,130.913 258.799,127.29 C262.351,123.738 270.183,121.165 278.754,120.733 C279.578,120.691 280.391,120.671 281.195,120.671 C288.723,120.671 295.245,122.461 298.209,125.425 C304.818,132.034 293.065,147.28 285.928,154.418 L285.928,154.418 Z" id="Shape"></path>
        </g>
    </g>
</svg>