<svg xmlns="http://www.w3.org/2000/svg" viewBox="0 0 20 20">
  <path d="M19 4.74c-.7.3-1.42.5-2.13.58.8-.5 1.34-1.16 1.63-2.05-.73.44-1.5.74-2.34.9C15.43 3.4 14.53 3 13.46 3c-1 0-1.9.36-2.6 1.08-.73.72-1.08 1.6-1.08 2.62 0 .28.02.56.1.85C8.35 7.48 6.93 7.1 5.6 6.4 4.3 5.74 3.18 4.8 2.26 3.68c-.33.58-.5 1.2-.5 1.88 0 .63.14 1.22.44 1.76.3.56.7 1 1.2 1.33-.6-.02-1.15-.18-1.67-.47v.05c0 .9.28 1.7.84 2.37.56.67 1.27 1.1 2.12 1.28-.33.08-.66.12-.98.12-.2 0-.45 0-.7-.05.24.74.67 1.35 1.3 1.83.63.47 1.35.72 2.15.73-1.34 1.06-2.87 1.6-4.58 1.6-.34 0-.63-.03-.9-.06 1.72 1.1 3.6 1.66 5.67 1.66 1.3 0 2.54-.2 3.7-.62 1.14-.42 2.12-.98 2.93-1.68.82-.7 1.52-1.5 2.1-2.4.6-.92 1.04-1.87 1.33-2.86.3-1 .43-2 .43-2.98v-.48c.7-.53 1.33-1.17 1.84-1.92"/>
</svg>